<?xml version="1.0" encoding="utf-8"?>
<!-- Generator: Adobe Illustrator 17.1.0, SVG Export Plug-In . SVG Version: 6.00 Build 0)  -->
<!DOCTYPE svg PUBLIC "-//W3C//DTD SVG 1.1//EN" "http://www.w3.org/Graphics/SVG/1.1/DTD/svg11.dtd">
<svg version="1.1" id="Layer_1" xmlns="http://www.w3.org/2000/svg" xmlns:xlink="http://www.w3.org/1999/xlink" x="0px" y="0px"
	 viewBox="70.7 0 541.3 1037.5" enable-background="new 70.7 0 541.3 1037.5" xml:space="preserve">
<g>
	<g>
		<path d="M599.8,236.6c11.1-10.8,15-26.7,10.2-41.4c-4.8-14.7-17.3-25.2-32.6-27.5l-133.9-19.5c-2.6-0.4-4.9-2-6.1-4.4L377.5,22.5
			C370.7,8.6,356.8,0,341.3,0S312,8.6,305.2,22.5l-59.9,121.3c-1.2,2.4-3.4,4-6.1,4.4l-133.9,19.5c-15.3,2.2-27.8,12.7-32.6,27.5
			c-4.8,14.7-0.9,30.6,10.2,41.4l96.9,94.5c1.9,1.9,2.8,4.5,2.3,7.1l-22.9,133.4c-2.6,15.3,3.5,30.4,16.1,39.5
			c12.5,9.1,28.8,10.3,42.5,3.1l119.8-63c2.4-1.2,5.2-1.2,7.5,0l119.8,63c6,3.1,12.4,4.7,18.8,4.7c8.3,0,16.6-2.6,23.7-7.8
			c12.5-9.1,18.7-24.2,16.1-39.5l-22.9-133.4c-0.4-2.6,0.4-5.3,2.3-7.1L599.8,236.6z M468.7,343.6L491.6,477c0.8,4.5-2,7-3.2,7.9
			c-1.2,0.9-4.5,2.7-8.5,0.6l-119.8-63c-5.9-3.1-12.3-4.6-18.8-4.6s-12.9,1.5-18.8,4.6l-119.8,63c-4,2.1-7.3,0.3-8.5-0.6
			c-1.2-0.9-4-3.4-3.2-7.9L214,343.6c2.2-13.1-2.1-26.4-11.6-35.7l-96.9-94.5c-3.2-3.2-2.5-6.8-2-8.3c0.5-1.4,2-4.8,6.5-5.5
			l133.9-19.5c13.1-1.9,24.5-10.2,30.4-22.1l59.9-121.3c2-4.1,5.7-4.5,7.2-4.5c1.5,0,5.2,0.4,7.2,4.5v0l59.9,121.3
			c5.9,11.9,17.2,20.2,30.4,22.1l133.9,19.5c4.5,0.7,6,4.1,6.5,5.5c0.5,1.4,1.2,5.1-2,8.3l-96.9,94.5
			C470.8,317.2,466.5,330.5,468.7,343.6z"/>
	</g>
</g>
<g>
	<g>
		<path d="M599.8,755.3c11.1-10.8,15-26.7,10.2-41.4c-4.8-14.7-17.3-25.2-32.6-27.5L443.5,667c-2.6-0.4-4.9-2-6.1-4.4l-59.9-121.3
			c-6.8-13.9-20.7-22.5-36.2-22.5s-29.3,8.6-36.2,22.5l-59.9,121.3c-1.2,2.4-3.4,4-6.1,4.4l-133.9,19.5
			c-15.3,2.2-27.8,12.7-32.6,27.5s-0.9,30.6,10.2,41.4l96.9,94.5c1.9,1.9,2.8,4.5,2.3,7.1l-22.9,133.4c-2.6,15.3,3.5,30.4,16.1,39.5
			c12.5,9.1,28.8,10.3,42.5,3.1l119.8-63c2.4-1.2,5.2-1.2,7.5,0l119.8,63c6,3.1,12.4,4.7,18.8,4.7c8.3,0,16.6-2.6,23.7-7.8
			c12.5-9.1,18.7-24.2,16.1-39.5l-22.9-133.4c-0.4-2.6,0.4-5.3,2.3-7.1L599.8,755.3z"/>
	</g>
</g>
</svg>
