<?xml version="1.0" encoding="utf-8"?>
<!-- Generator: Adobe Illustrator 17.1.0, SVG Export Plug-In . SVG Version: 6.00 Build 0)  -->
<!DOCTYPE svg PUBLIC "-//W3C//DTD SVG 1.1//EN" "http://www.w3.org/Graphics/SVG/1.1/DTD/svg11.dtd">
<svg version="1.1" id="Layer_1" xmlns="http://www.w3.org/2000/svg" xmlns:xlink="http://www.w3.org/1999/xlink" x="0px" y="0px"
	 viewBox="0 0 19.6 36.1" enable-background="new 0 0 19.6 36.1" xml:space="preserve">
<path fill="none" stroke="#ffd300" stroke-width="2" stroke-linecap="round" stroke-linejoin="round" stroke-miterlimit="10" d="
	M18.3,22.9c-0.8-3.5-4.8-4.7-8.4-1.1c-3.6-3.6-7.6-2.4-8.4,1.1c-0.8,3.4,2.4,8,8.4,12C15.9,30.9,19.1,26.3,18.3,22.9z"/>
<path fill="none" stroke="#ffd300" stroke-width="2" stroke-linecap="round" stroke-linejoin="round" stroke-miterlimit="10" d="
	M18.3,4.5C17.5,1,13.5-0.2,9.9,3.4C6.2-0.2,2.3,1,1.5,4.5c-0.8,3.4,2.4,8,8.4,12C15.9,12.5,19.1,7.9,18.3,4.5z"/>
<path fill="#ffd300" d="M13.6,1.6c-1.7,0-2.9,0.7-3.7,1.7C9.1,2.5,8,1.9,6.5,1.9c-5.9,0-6.4,8.4-1.4,9.8c0.3,2.2,1.9,4.2,4.8,4.2
	c2.5,0,4.1-1.5,4.6-3.4c0.8-0.4,1.4-0.9,1.9-1.6C19.9,8.6,19,1.6,13.6,1.6z"/>
</svg>
